<svg width="118" height="32" viewBox="0 0 118 32" fill="none" xmlns="http://www.w3.org/2000/svg">
<path d="M19 17H13V23H11V17H5V15H11V9H13V15H19V17Z" fill="#007AFF"/>
<path d="M39.5781 18.3516H35.1719L34.25 21H32.1953L36.4922 9.625H38.2656L42.5703 21H40.5078L39.5781 18.3516ZM35.7266 16.7578H39.0234L37.375 12.0391L35.7266 16.7578ZM43.3281 16.7109C43.3281 15.4089 43.6302 14.3646 44.2344 13.5781C44.8385 12.7865 45.6484 12.3906 46.6641 12.3906C47.5599 12.3906 48.2839 12.7031 48.8359 13.3281V9H50.7344V21H49.0156L48.9219 20.125C48.3542 20.8125 47.5964 21.1562 46.6484 21.1562C45.6589 21.1562 44.8568 20.7578 44.2422 19.9609C43.6328 19.1641 43.3281 18.0807 43.3281 16.7109ZM45.2266 16.875C45.2266 17.7344 45.3906 18.4062 45.7188 18.8906C46.0521 19.3698 46.5234 19.6094 47.1328 19.6094C47.9089 19.6094 48.4766 19.263 48.8359 18.5703V14.9609C48.487 14.2839 47.9245 13.9453 47.1484 13.9453C46.5339 13.9453 46.0599 14.1901 45.7266 14.6797C45.3932 15.1641 45.2266 15.8958 45.2266 16.875ZM52.3594 16.7109C52.3594 15.4089 52.6615 14.3646 53.2656 13.5781C53.8698 12.7865 54.6797 12.3906 55.6953 12.3906C56.5911 12.3906 57.3151 12.7031 57.8672 13.3281V9H59.7656V21H58.0469L57.9531 20.125C57.3854 20.8125 56.6276 21.1562 55.6797 21.1562C54.6901 21.1562 53.888 20.7578 53.2734 19.9609C52.6641 19.1641 52.3594 18.0807 52.3594 16.7109ZM54.2578 16.875C54.2578 17.7344 54.4219 18.4062 54.75 18.8906C55.0833 19.3698 55.5547 19.6094 56.1641 19.6094C56.9401 19.6094 57.5078 19.263 57.8672 18.5703V14.9609C57.5182 14.2839 56.9557 13.9453 56.1797 13.9453C55.5651 13.9453 55.0911 14.1901 54.7578 14.6797C54.4245 15.1641 54.2578 15.8958 54.2578 16.875ZM68.4766 9.625L71.7578 18.3438L75.0312 9.625H77.5859V21H75.6172V17.25L75.8125 12.2344L72.4531 21H71.0391L67.6875 12.2422L67.8828 17.25V21H65.9141V9.625H68.4766ZM79.3906 16.6953C79.3906 15.8672 79.5547 15.1224 79.8828 14.4609C80.2109 13.7943 80.6719 13.2839 81.2656 12.9297C81.8594 12.5703 82.5417 12.3906 83.3125 12.3906C84.4531 12.3906 85.3776 12.7578 86.0859 13.4922C86.7995 14.2266 87.1849 15.2005 87.2422 16.4141L87.25 16.8594C87.25 17.6927 87.0885 18.4375 86.7656 19.0938C86.4479 19.75 85.9896 20.2578 85.3906 20.6172C84.7969 20.9766 84.1094 21.1562 83.3281 21.1562C82.1354 21.1562 81.1797 20.7604 80.4609 19.9688C79.7474 19.1719 79.3906 18.112 79.3906 16.7891V16.6953ZM81.2891 16.8594C81.2891 17.7292 81.4688 18.4115 81.8281 18.9062C82.1875 19.3958 82.6875 19.6406 83.3281 19.6406C83.9688 19.6406 84.4661 19.3906 84.8203 18.8906C85.1797 18.3906 85.3594 17.6589 85.3594 16.6953C85.3594 15.8411 85.1745 15.1641 84.8047 14.6641C84.4401 14.1641 83.9427 13.9141 83.3125 13.9141C82.6927 13.9141 82.2005 14.1615 81.8359 14.6562C81.4714 15.1458 81.2891 15.8802 81.2891 16.8594ZM93.2812 14.2812C93.0312 14.2396 92.7734 14.2188 92.5078 14.2188C91.638 14.2188 91.0521 14.5521 90.75 15.2188V21H88.8516V12.5469H90.6641L90.7109 13.4922C91.1693 12.7578 91.8047 12.3906 92.6172 12.3906C92.888 12.3906 93.112 12.4271 93.2891 12.5L93.2812 14.2812ZM98.0469 21.1562C96.8438 21.1562 95.8672 20.7786 95.1172 20.0234C94.3724 19.263 94 18.2526 94 16.9922V16.7578C94 15.9141 94.1615 15.1615 94.4844 14.5C94.8125 13.8333 95.2708 13.3151 95.8594 12.9453C96.4479 12.5755 97.1042 12.3906 97.8281 12.3906C98.9792 12.3906 99.8672 12.7578 100.492 13.4922C101.122 14.2266 101.438 15.2656 101.438 16.6094V17.375H95.9141C95.9714 18.0729 96.2031 18.625 96.6094 19.0312C97.0208 19.4375 97.5365 19.6406 98.1562 19.6406C99.026 19.6406 99.7344 19.2891 100.281 18.5859L101.305 19.5625C100.966 20.0677 100.513 20.4609 99.9453 20.7422C99.3828 21.0182 98.75 21.1562 98.0469 21.1562ZM97.8203 13.9141C97.2995 13.9141 96.8776 14.0964 96.5547 14.4609C96.237 14.8255 96.0339 15.3333 95.9453 15.9844H99.5625V15.8438C99.5208 15.2083 99.3516 14.7292 99.0547 14.4062C98.7578 14.0781 98.3464 13.9141 97.8203 13.9141Z" fill="#007AFF"/>
</svg>
